<mxfile host="app.diagrams.net" agent="Mozilla/5.0 (Windows NT 10.0; Win64; x64; rv:138.0) Gecko/20100101 Firefox/138.0" version="27.0.5">
  <diagram name="Page-1" id="K6LvVUWZtZo4O9ytxagy">
    <mxGraphModel dx="813" dy="462" grid="1" gridSize="10" guides="1" tooltips="1" connect="1" arrows="1" fold="1" page="1" pageScale="1" pageWidth="1100" pageHeight="850" math="0" shadow="0">
      <root>
        <mxCell id="0" />
        <mxCell id="1" parent="0" />
        <mxCell id="MWx7bWa3bGEuyPlrxJr7-3" value="" style="sketch=0;pointerEvents=1;shadow=0;dashed=0;html=1;strokeColor=none;fillColor=#505050;labelPosition=center;verticalLabelPosition=bottom;verticalAlign=top;outlineConnect=0;align=center;shape=mxgraph.office.concepts.folder;" vertex="1" parent="1">
          <mxGeometry x="280" y="80" width="40" height="40" as="geometry" />
        </mxCell>
        <mxCell id="MWx7bWa3bGEuyPlrxJr7-7" value="" style="sketch=0;pointerEvents=1;shadow=0;dashed=0;html=1;strokeColor=none;fillColor=#505050;labelPosition=center;verticalLabelPosition=bottom;verticalAlign=top;outlineConnect=0;align=center;shape=mxgraph.office.concepts.folder;" vertex="1" parent="1">
          <mxGeometry x="280" y="160" width="40" height="40" as="geometry" />
        </mxCell>
        <mxCell id="MWx7bWa3bGEuyPlrxJr7-8" value="" style="group" vertex="1" connectable="0" parent="1">
          <mxGeometry x="380" y="70" width="48.24" height="60" as="geometry" />
        </mxCell>
        <mxCell id="MWx7bWa3bGEuyPlrxJr7-4" value="" style="verticalLabelPosition=bottom;html=1;verticalAlign=top;strokeWidth=1;align=center;outlineConnect=0;dashed=0;outlineConnect=0;shape=mxgraph.aws3d.file;aspect=fixed;strokeColor=#292929;" vertex="1" parent="MWx7bWa3bGEuyPlrxJr7-8">
          <mxGeometry x="22.07" width="26.17" height="60" as="geometry" />
        </mxCell>
        <mxCell id="MWx7bWa3bGEuyPlrxJr7-5" value="" style="verticalLabelPosition=bottom;html=1;verticalAlign=top;strokeWidth=1;align=center;outlineConnect=0;dashed=0;outlineConnect=0;shape=mxgraph.aws3d.file;aspect=fixed;strokeColor=#292929;" vertex="1" parent="MWx7bWa3bGEuyPlrxJr7-8">
          <mxGeometry x="12.07" width="26.17" height="60" as="geometry" />
        </mxCell>
        <mxCell id="MWx7bWa3bGEuyPlrxJr7-6" value="" style="verticalLabelPosition=bottom;html=1;verticalAlign=top;strokeWidth=1;align=center;outlineConnect=0;dashed=0;outlineConnect=0;shape=mxgraph.aws3d.file;aspect=fixed;strokeColor=#292929;" vertex="1" parent="MWx7bWa3bGEuyPlrxJr7-8">
          <mxGeometry width="26.17" height="60" as="geometry" />
        </mxCell>
        <mxCell id="MWx7bWa3bGEuyPlrxJr7-9" value="" style="group" vertex="1" connectable="0" parent="1">
          <mxGeometry x="380" y="150" width="48.24" height="60" as="geometry" />
        </mxCell>
        <mxCell id="MWx7bWa3bGEuyPlrxJr7-10" value="" style="verticalLabelPosition=bottom;html=1;verticalAlign=top;strokeWidth=1;align=center;outlineConnect=0;dashed=0;outlineConnect=0;shape=mxgraph.aws3d.file;aspect=fixed;strokeColor=#292929;" vertex="1" parent="MWx7bWa3bGEuyPlrxJr7-9">
          <mxGeometry x="22.07" width="26.17" height="60" as="geometry" />
        </mxCell>
        <mxCell id="MWx7bWa3bGEuyPlrxJr7-11" value="" style="verticalLabelPosition=bottom;html=1;verticalAlign=top;strokeWidth=1;align=center;outlineConnect=0;dashed=0;outlineConnect=0;shape=mxgraph.aws3d.file;aspect=fixed;strokeColor=#292929;" vertex="1" parent="MWx7bWa3bGEuyPlrxJr7-9">
          <mxGeometry x="12.07" width="26.17" height="60" as="geometry" />
        </mxCell>
        <mxCell id="MWx7bWa3bGEuyPlrxJr7-12" value="" style="verticalLabelPosition=bottom;html=1;verticalAlign=top;strokeWidth=1;align=center;outlineConnect=0;dashed=0;outlineConnect=0;shape=mxgraph.aws3d.file;aspect=fixed;strokeColor=#292929;" vertex="1" parent="MWx7bWa3bGEuyPlrxJr7-9">
          <mxGeometry width="26.17" height="60" as="geometry" />
        </mxCell>
        <mxCell id="MWx7bWa3bGEuyPlrxJr7-13" value="" style="sketch=0;pointerEvents=1;shadow=0;dashed=0;html=1;strokeColor=none;fillColor=#505050;labelPosition=center;verticalLabelPosition=bottom;verticalAlign=top;outlineConnect=0;align=center;shape=mxgraph.office.concepts.folder;" vertex="1" parent="1">
          <mxGeometry x="280" y="240" width="40" height="40" as="geometry" />
        </mxCell>
        <mxCell id="MWx7bWa3bGEuyPlrxJr7-18" value="novels/" style="text;html=1;align=left;verticalAlign=middle;whiteSpace=wrap;rounded=0;fontFamily=Courier New;fontSize=13;" vertex="1" parent="1">
          <mxGeometry x="280" y="130" width="60" height="20" as="geometry" />
        </mxCell>
        <mxCell id="MWx7bWa3bGEuyPlrxJr7-19" value="shortStories/" style="text;html=1;align=left;verticalAlign=middle;whiteSpace=wrap;rounded=0;fontFamily=Courier New;fontSize=13;" vertex="1" parent="1">
          <mxGeometry x="280" y="209" width="80" height="20" as="geometry" />
        </mxCell>
        <mxCell id="MWx7bWa3bGEuyPlrxJr7-20" value="nonFiction/" style="text;html=1;align=left;verticalAlign=middle;whiteSpace=wrap;rounded=0;fontFamily=Courier New;fontSize=13;" vertex="1" parent="1">
          <mxGeometry x="280" y="290" width="80" height="20" as="geometry" />
        </mxCell>
        <mxCell id="MWx7bWa3bGEuyPlrxJr7-21" value="" style="sketch=0;pointerEvents=1;shadow=0;dashed=0;html=1;strokeColor=none;fillColor=#505050;labelPosition=center;verticalLabelPosition=bottom;verticalAlign=top;outlineConnect=0;align=center;shape=mxgraph.office.concepts.folder;" vertex="1" parent="1">
          <mxGeometry x="280" y="320" width="40" height="40" as="geometry" />
        </mxCell>
        <mxCell id="MWx7bWa3bGEuyPlrxJr7-22" value="" style="group" vertex="1" connectable="0" parent="1">
          <mxGeometry x="380" y="310" width="48.24" height="60" as="geometry" />
        </mxCell>
        <mxCell id="MWx7bWa3bGEuyPlrxJr7-23" value="" style="verticalLabelPosition=bottom;html=1;verticalAlign=top;strokeWidth=1;align=center;outlineConnect=0;dashed=0;outlineConnect=0;shape=mxgraph.aws3d.file;aspect=fixed;strokeColor=#292929;" vertex="1" parent="MWx7bWa3bGEuyPlrxJr7-22">
          <mxGeometry x="22.07" width="26.17" height="60" as="geometry" />
        </mxCell>
        <mxCell id="MWx7bWa3bGEuyPlrxJr7-24" value="" style="verticalLabelPosition=bottom;html=1;verticalAlign=top;strokeWidth=1;align=center;outlineConnect=0;dashed=0;outlineConnect=0;shape=mxgraph.aws3d.file;aspect=fixed;strokeColor=#292929;" vertex="1" parent="MWx7bWa3bGEuyPlrxJr7-22">
          <mxGeometry x="12.07" width="26.17" height="60" as="geometry" />
        </mxCell>
        <mxCell id="MWx7bWa3bGEuyPlrxJr7-25" value="" style="verticalLabelPosition=bottom;html=1;verticalAlign=top;strokeWidth=1;align=center;outlineConnect=0;dashed=0;outlineConnect=0;shape=mxgraph.aws3d.file;aspect=fixed;strokeColor=#292929;" vertex="1" parent="MWx7bWa3bGEuyPlrxJr7-22">
          <mxGeometry width="26.17" height="60" as="geometry" />
        </mxCell>
        <mxCell id="MWx7bWa3bGEuyPlrxJr7-26" value="biographies/" style="text;html=1;align=left;verticalAlign=middle;whiteSpace=wrap;rounded=0;fontFamily=Courier New;fontSize=13;" vertex="1" parent="1">
          <mxGeometry x="280" y="370" width="80" height="20" as="geometry" />
        </mxCell>
        <mxCell id="MWx7bWa3bGEuyPlrxJr7-28" value="&lt;div style=&quot;line-height: 100%;&quot;&gt;&lt;div&gt;&lt;ul&gt;&lt;li&gt;DoAndroidsDreamOfElectricSheep.md&lt;/li&gt;&lt;li&gt;UBIK.md&lt;/li&gt;&lt;li&gt;GalacticPotHealer.md&lt;/li&gt;&lt;li&gt;...&lt;/li&gt;&lt;/ul&gt;&lt;/div&gt;&lt;/div&gt;" style="text;html=1;align=left;verticalAlign=top;whiteSpace=wrap;rounded=0;spacingTop=-10;" vertex="1" parent="1">
          <mxGeometry x="410" y="70" width="150" height="60" as="geometry" />
        </mxCell>
        <mxCell id="MWx7bWa3bGEuyPlrxJr7-29" value="&lt;div style=&quot;line-height: 100%;&quot;&gt;&lt;div&gt;&lt;ul&gt;&lt;li&gt;DoAndroidsDreamOfElectricSheep.md&lt;/li&gt;&lt;li&gt;UBIK.md&lt;/li&gt;&lt;li&gt;GalacticPotHealer.md&lt;/li&gt;&lt;li&gt;...&lt;/li&gt;&lt;/ul&gt;&lt;/div&gt;&lt;/div&gt;" style="text;html=1;align=left;verticalAlign=top;whiteSpace=wrap;rounded=0;spacingTop=-10;" vertex="1" parent="1">
          <mxGeometry x="410" y="149" width="150" height="60" as="geometry" />
        </mxCell>
        <mxCell id="MWx7bWa3bGEuyPlrxJr7-31" value="&lt;div style=&quot;line-height: 100%;&quot;&gt;&lt;div&gt;&lt;ul&gt;&lt;li&gt;IAmAliveAndYouAreDead.md&lt;/li&gt;&lt;li&gt;DivineInvasions.md&lt;/li&gt;&lt;li&gt;TheSearchForPhilipKDick.md&lt;/li&gt;&lt;li&gt;...&lt;/li&gt;&lt;/ul&gt;&lt;/div&gt;&lt;/div&gt;" style="text;html=1;align=left;verticalAlign=top;whiteSpace=wrap;rounded=0;spacingTop=-10;" vertex="1" parent="1">
          <mxGeometry x="410" y="310" width="150" height="60" as="geometry" />
        </mxCell>
        <mxCell id="MWx7bWa3bGEuyPlrxJr7-32" value="&lt;div align=&quot;left&quot;&gt;---&lt;/div&gt;&lt;div align=&quot;left&quot;&gt;title: &quot;UBIK&quot;&lt;br&gt;author: &quot;Philip K. Dick&quot;&lt;br&gt;language: &quot;en&quot;&lt;br&gt;genre: &quot;Science-fiction&quot;&lt;br&gt;published: 1969&lt;/div&gt;&lt;div align=&quot;left&quot;&gt;written: 1966&lt;/div&gt;&lt;div align=&quot;left&quot;&gt;---&lt;/div&gt;&lt;div align=&quot;left&quot;&gt;Friends, this is clean-up time and we&#39;re discounting all our silent, electric Ubiks by this much money. Yes, we&#39;re throwing away the blue-book. And remember: every Ubik on our lot has been used only as directed.&lt;/div&gt;&lt;div&gt;&lt;br&gt;&lt;/div&gt;&lt;div&gt;&lt;br&gt;&lt;/div&gt;&lt;div&gt;...&lt;/div&gt;" style="whiteSpace=wrap;html=1;shape=mxgraph.basic.document;fillColor=none;align=left;verticalAlign=top;spacingTop=5;spacingLeft=5;" vertex="1" parent="1">
          <mxGeometry x="690" y="80" width="190" height="280" as="geometry" />
        </mxCell>
        <mxCell id="MWx7bWa3bGEuyPlrxJr7-15" value="" style="verticalLabelPosition=bottom;html=1;verticalAlign=top;strokeWidth=1;align=center;outlineConnect=0;dashed=0;outlineConnect=0;shape=mxgraph.aws3d.file;aspect=fixed;strokeColor=#292929;" vertex="1" parent="1">
          <mxGeometry x="402.07" y="229" width="26.17" height="60" as="geometry" />
        </mxCell>
        <mxCell id="MWx7bWa3bGEuyPlrxJr7-16" value="" style="verticalLabelPosition=bottom;html=1;verticalAlign=top;strokeWidth=1;align=center;outlineConnect=0;dashed=0;outlineConnect=0;shape=mxgraph.aws3d.file;aspect=fixed;strokeColor=#292929;" vertex="1" parent="1">
          <mxGeometry x="392.07" y="229" width="26.17" height="60" as="geometry" />
        </mxCell>
        <mxCell id="MWx7bWa3bGEuyPlrxJr7-17" value="" style="verticalLabelPosition=bottom;html=1;verticalAlign=top;strokeWidth=1;align=center;outlineConnect=0;dashed=0;outlineConnect=0;shape=mxgraph.aws3d.file;aspect=fixed;strokeColor=#292929;" vertex="1" parent="1">
          <mxGeometry x="380" y="229" width="26.17" height="60" as="geometry" />
        </mxCell>
        <mxCell id="MWx7bWa3bGEuyPlrxJr7-30" value="&lt;div style=&quot;line-height: 100%;&quot;&gt;&lt;div&gt;&lt;ul&gt;&lt;li&gt;TheExegesis.md&lt;/li&gt;&lt;li&gt;DarkHairedGirls.md&lt;/li&gt;&lt;li&gt;SelectedLetters01.md&lt;/li&gt;&lt;li&gt;...&lt;/li&gt;&lt;/ul&gt;&lt;/div&gt;&lt;/div&gt;" style="text;html=1;align=left;verticalAlign=top;whiteSpace=wrap;rounded=0;spacingTop=-10;" vertex="1" parent="1">
          <mxGeometry x="410" y="229" width="150" height="60" as="geometry" />
        </mxCell>
      </root>
    </mxGraphModel>
  </diagram>
</mxfile>
